<mxfile host="Electron" modified="2023-05-09T09:49:19.422Z" agent="Mozilla/5.0 (Macintosh; Intel Mac OS X 10_15_7) AppleWebKit/537.36 (KHTML, like Gecko) draw.io/21.2.8 Chrome/112.0.5615.165 Electron/24.2.0 Safari/537.36" etag="xeIjDYaFJOEn0rUwBrgG" version="21.2.8" type="device">
  <diagram name="Page-1" id="6gMXO5QMRiyUPJpeMkBk">
    <mxGraphModel dx="561" dy="396" grid="1" gridSize="10" guides="1" tooltips="1" connect="1" arrows="1" fold="1" page="1" pageScale="1" pageWidth="827" pageHeight="1169" math="0" shadow="0">
      <root>
        <mxCell id="0" />
        <mxCell id="1" parent="0" />
        <mxCell id="pa6IfqOAOQ_FyLSJogxl-1" value="" style="rounded=0;whiteSpace=wrap;html=1;" parent="1" vertex="1">
          <mxGeometry y="40" width="820" height="430" as="geometry" />
        </mxCell>
        <mxCell id="pa6IfqOAOQ_FyLSJogxl-4" value="&lt;font style=&quot;font-size: 20px;&quot;&gt;AppComponent&lt;/font&gt;" style="text;html=1;strokeColor=none;fillColor=none;align=center;verticalAlign=middle;whiteSpace=wrap;rounded=0;" parent="1" vertex="1">
          <mxGeometry x="40" y="40" width="60" height="30" as="geometry" />
        </mxCell>
        <mxCell id="pa6IfqOAOQ_FyLSJogxl-9" value="" style="rounded=0;whiteSpace=wrap;html=1;fillColor=#e1d5e7;strokeColor=#9673a6;" parent="1" vertex="1">
          <mxGeometry x="10" y="80" width="800" height="380" as="geometry" />
        </mxCell>
        <mxCell id="pa6IfqOAOQ_FyLSJogxl-10" value="&lt;font style=&quot;font-size: 18px;&quot;&gt;AppModule&lt;/font&gt;" style="text;html=1;strokeColor=none;fillColor=none;align=center;verticalAlign=middle;whiteSpace=wrap;rounded=0;" parent="1" vertex="1">
          <mxGeometry x="30" y="430" width="60" height="30" as="geometry" />
        </mxCell>
        <mxCell id="pa6IfqOAOQ_FyLSJogxl-2" value="" style="rounded=0;whiteSpace=wrap;html=1;fillColor=#ffe6cc;strokeColor=#d79b00;" parent="1" vertex="1">
          <mxGeometry x="200" y="210" width="610" height="250" as="geometry" />
        </mxCell>
        <mxCell id="pa6IfqOAOQ_FyLSJogxl-3" value="&lt;font style=&quot;font-size: 18px;&quot;&gt;StoreModule&lt;/font&gt;" style="text;html=1;strokeColor=none;fillColor=none;align=center;verticalAlign=middle;whiteSpace=wrap;rounded=0;" parent="1" vertex="1">
          <mxGeometry x="200" y="190" width="110" height="60" as="geometry" />
        </mxCell>
        <mxCell id="pa6IfqOAOQ_FyLSJogxl-5" value="" style="rounded=0;whiteSpace=wrap;html=1;fillColor=#dae8fc;strokeColor=#6c8ebf;" parent="1" vertex="1">
          <mxGeometry x="240" y="230" width="560" height="220" as="geometry" />
        </mxCell>
        <mxCell id="pa6IfqOAOQ_FyLSJogxl-6" value="&lt;font style=&quot;font-size: 18px;&quot;&gt;StoreComponent&lt;/font&gt;" style="text;html=1;strokeColor=none;fillColor=none;align=center;verticalAlign=middle;whiteSpace=wrap;rounded=0;" parent="1" vertex="1">
          <mxGeometry x="280" y="420" width="60" height="30" as="geometry" />
        </mxCell>
        <mxCell id="pa6IfqOAOQ_FyLSJogxl-7" value="&lt;font style=&quot;font-size: 18px;&quot;&gt;ProductItemComponent&lt;/font&gt;" style="rounded=1;whiteSpace=wrap;html=1;fillColor=#dae8fc;strokeColor=#6c8ebf;strokeWidth=6;" parent="1" vertex="1">
          <mxGeometry x="530" y="250" width="260" height="60" as="geometry" />
        </mxCell>
        <mxCell id="pa6IfqOAOQ_FyLSJogxl-8" value="" style="rounded=1;whiteSpace=wrap;html=1;fillColor=#dae8fc;strokeColor=#6c8ebf;strokeWidth=6;" parent="1" vertex="1">
          <mxGeometry x="530" y="330" width="260" height="60" as="geometry" />
        </mxCell>
        <mxCell id="pa6IfqOAOQ_FyLSJogxl-11" value="" style="rounded=0;whiteSpace=wrap;html=1;fillColor=#ffe6cc;strokeColor=#d79b00;" parent="1" vertex="1">
          <mxGeometry x="10" y="80" width="800" height="90" as="geometry" />
        </mxCell>
        <mxCell id="pa6IfqOAOQ_FyLSJogxl-12" value="&lt;font style=&quot;font-size: 18px;&quot;&gt;NavbarModule&lt;/font&gt;" style="text;html=1;strokeColor=none;fillColor=none;align=center;verticalAlign=middle;whiteSpace=wrap;rounded=0;" parent="1" vertex="1">
          <mxGeometry x="40" y="140" width="60" height="30" as="geometry" />
        </mxCell>
        <mxCell id="pa6IfqOAOQ_FyLSJogxl-13" value="" style="rounded=0;whiteSpace=wrap;html=1;fillColor=#dae8fc;strokeColor=#6c8ebf;" parent="1" vertex="1">
          <mxGeometry x="20" y="80" width="780" height="60" as="geometry" />
        </mxCell>
        <mxCell id="pa6IfqOAOQ_FyLSJogxl-14" value="&lt;font style=&quot;font-size: 18px;&quot;&gt;NavbarComponent&lt;/font&gt;" style="text;html=1;strokeColor=none;fillColor=none;align=center;verticalAlign=middle;whiteSpace=wrap;rounded=0;" parent="1" vertex="1">
          <mxGeometry x="690" y="80" width="60" height="30" as="geometry" />
        </mxCell>
        <mxCell id="NWxVfYU51fOuwE1pLAjI-1" value="&lt;font style=&quot;font-size: 18px;&quot;&gt;StoreService&lt;/font&gt;" style="ellipse;whiteSpace=wrap;html=1;aspect=fixed;fillColor=#d5e8d4;strokeColor=#82b366;" parent="1" vertex="1">
          <mxGeometry x="920" y="340" width="130" height="130" as="geometry" />
        </mxCell>
        <mxCell id="NWxVfYU51fOuwE1pLAjI-2" value="&lt;font style=&quot;font-size: 16px;&quot;&gt;HTTP&lt;/font&gt;&lt;br&gt;&lt;font style=&quot;font-size: 15px;&quot;&gt;requests&lt;/font&gt;" style="ellipse;shape=cloud;whiteSpace=wrap;html=1;" parent="1" vertex="1">
          <mxGeometry x="1130" y="360" width="120" height="90" as="geometry" />
        </mxCell>
        <mxCell id="NWxVfYU51fOuwE1pLAjI-3" value="" style="endArrow=classic;html=1;rounded=0;exitX=0.998;exitY=0.782;exitDx=0;exitDy=0;exitPerimeter=0;entryX=-0.01;entryY=0.505;entryDx=0;entryDy=0;entryPerimeter=0;" parent="1" source="pa6IfqOAOQ_FyLSJogxl-2" target="NWxVfYU51fOuwE1pLAjI-1" edge="1">
          <mxGeometry width="50" height="50" relative="1" as="geometry">
            <mxPoint x="870" y="370" as="sourcePoint" />
            <mxPoint x="910" y="410" as="targetPoint" />
          </mxGeometry>
        </mxCell>
        <mxCell id="NWxVfYU51fOuwE1pLAjI-4" value="" style="endArrow=classic;html=1;rounded=0;exitX=1;exitY=0.5;exitDx=0;exitDy=0;entryX=0.051;entryY=0.496;entryDx=0;entryDy=0;entryPerimeter=0;" parent="1" source="NWxVfYU51fOuwE1pLAjI-1" target="NWxVfYU51fOuwE1pLAjI-2" edge="1">
          <mxGeometry width="50" height="50" relative="1" as="geometry">
            <mxPoint x="1080" y="404.68" as="sourcePoint" />
            <mxPoint x="1178" y="404.68" as="targetPoint" />
          </mxGeometry>
        </mxCell>
        <mxCell id="NWxVfYU51fOuwE1pLAjI-5" value="" style="ellipse;whiteSpace=wrap;html=1;aspect=fixed;fillColor=#d5e8d4;strokeColor=#82b366;" parent="1" vertex="1">
          <mxGeometry x="807" y="400" width="10" height="10" as="geometry" />
        </mxCell>
        <mxCell id="NWxVfYU51fOuwE1pLAjI-7" value="Store-Routing" style="rhombus;whiteSpace=wrap;html=1;fillColor=#f8cecc;strokeColor=#b85450;" parent="1" vertex="1">
          <mxGeometry x="220" y="490" width="160" height="80" as="geometry" />
        </mxCell>
        <mxCell id="NWxVfYU51fOuwE1pLAjI-9" value="" style="endArrow=classic;html=1;rounded=0;entryX=0;entryY=0.5;entryDx=0;entryDy=0;exitX=0.5;exitY=1;exitDx=0;exitDy=0;strokeWidth=3;" parent="1" source="NWxVfYU51fOuwE1pLAjI-10" target="NWxVfYU51fOuwE1pLAjI-7" edge="1">
          <mxGeometry width="50" height="50" relative="1" as="geometry">
            <mxPoint x="160" y="560" as="sourcePoint" />
            <mxPoint x="210" y="510" as="targetPoint" />
          </mxGeometry>
        </mxCell>
        <mxCell id="NWxVfYU51fOuwE1pLAjI-10" value="" style="ellipse;whiteSpace=wrap;html=1;fillColor=#f8cecc;strokeColor=#b85450;" parent="1" vertex="1">
          <mxGeometry x="210" y="390" width="10" height="10" as="geometry" />
        </mxCell>
        <mxCell id="NWxVfYU51fOuwE1pLAjI-11" value="" style="endArrow=classic;html=1;rounded=0;exitX=1;exitY=0.5;exitDx=0;exitDy=0;strokeWidth=3;" parent="1" source="NWxVfYU51fOuwE1pLAjI-7" edge="1">
          <mxGeometry width="50" height="50" relative="1" as="geometry">
            <mxPoint x="330" y="470" as="sourcePoint" />
            <mxPoint x="380" y="420" as="targetPoint" />
          </mxGeometry>
        </mxCell>
        <mxCell id="NWxVfYU51fOuwE1pLAjI-12" value="" style="endArrow=classic;html=1;rounded=0;exitX=1;exitY=0.5;exitDx=0;exitDy=0;strokeWidth=3;entryX=0.077;entryY=0.333;entryDx=0;entryDy=0;entryPerimeter=0;" parent="1" source="NWxVfYU51fOuwE1pLAjI-7" target="pa6IfqOAOQ_FyLSJogxl-7" edge="1">
          <mxGeometry width="50" height="50" relative="1" as="geometry">
            <mxPoint x="310" y="540" as="sourcePoint" />
            <mxPoint x="390" y="430" as="targetPoint" />
          </mxGeometry>
        </mxCell>
      </root>
    </mxGraphModel>
  </diagram>
</mxfile>
